<svg width="1000" height="1000" viewBox="0 0 1000 1000" fill="none" xmlns="http://www.w3.org/2000/svg">
<rect width="1000" height="1000" fill="white"/>
<path d="M248.6 474.2C262.573 474.2 273.9 462.873 273.9 448.9C273.9 434.927 262.573 423.6 248.6 423.6C234.627 423.6 223.3 434.927 223.3 448.9C223.3 462.873 234.627 474.2 248.6 474.2Z" fill="#21BDDB"/>
<path fill-rule="evenodd" clip-rule="evenodd" d="M146.1 521.5C144.6 520.5 140.2 514.7 128.3 486.1C127.5 484.3 126.9 482.8 126.2 481.4L123.8 475.5L102.8 424.9H60.8L81.8 475.5L102.8 526.1L122.2 572.9C122.6 573.8 123.6 574.2 124.5 573.8C124.9 573.6 125.3 573.3 125.4 572.9L146.5 522.4C146.5 522.2 146.4 521.7 146.1 521.5Z" fill="#282828"/>
<path fill-rule="evenodd" clip-rule="evenodd" d="M224.7 521.5C223.2 520.5 218.8 514.7 206.9 486.1C206.1 484.3 205.5 482.8 204.8 481.4L202.4 475.5L181.4 424.9H139.5L160.5 475.5L181.5 526.1L200.8 572.9C201.2 573.8 202.2 574.2 203.1 573.8C203.5 573.6 203.9 573.3 204 572.9L225.1 522.4C225.1 522.2 225 521.7 224.7 521.5Z" fill="#282828"/>
<path d="M602 502.2V547.8H588.1V502.2C588.1 488.4 579.3 482.2 568.4 482.2C558.1 482.2 548.7 488.1 548.7 502.2V547.8H535V470.8H548.9V477C554.4 471.3 562 468.1 569.9 468.2C588.4 468.3 602 482.3 602 502.2ZM824.2 444.5V547.8H810.3V538.5C803.4 546.2 793.5 550.6 783.1 550.4C760.4 550.4 742.1 532 742.1 509.3C742.1 486.6 760.5 468.3 783.1 468.3C793.5 468.1 803.4 472.5 810.3 480.2V444.5H824.2ZM810.4 509.4C810.4 494.4 798.3 482.2 783.3 482.2C768.3 482.2 756.1 494.3 756.1 509.3C756.1 524.3 768.2 536.5 783.2 536.5C790.4 536.5 797.3 533.7 802.4 528.6C807.5 523.5 810.4 516.6 810.4 509.4ZM520.5 470.9V547.9H506.6V538.5C499.7 546.2 489.8 550.6 479.4 550.4C456.7 550.4 438.4 532 438.4 509.3C438.4 486.6 456.8 468.3 479.4 468.3C489.8 468.1 499.7 472.5 506.6 480.2V470.9H520.5ZM506.6 509.4C506.6 494.4 494.5 482.2 479.5 482.2C464.5 482.2 452.3 494.3 452.3 509.3C452.3 524.3 464.4 536.5 479.4 536.5C486.6 536.5 493.5 533.7 498.6 528.6C503.7 523.5 506.6 516.6 506.6 509.4ZM716 524H731.5C723.4 545.5 699.4 556.4 677.9 548.3C656.4 540.2 645.5 516.2 653.6 494.7C661.7 473.2 685.7 462.3 707.2 470.4C726 477.5 737.1 496.9 733.5 516.7H667C671.1 531.2 686.1 539.6 700.5 535.5C705 534.2 709.1 531.8 712.4 528.5C713.8 527.2 715 525.7 716 524ZM666.6 503.6H719.7C716.5 488.9 702 479.6 687.4 482.8C677 485.1 668.9 493.2 666.6 503.6ZM450.8 444.6H435.7L405.2 518.3L379.8 444.5H372.5L347.1 518.2L316.6 444.5H301.5L344.3 547.8H352L376.1 477.8L400.2 547.8H408L450.8 444.6ZM852.6 444.6H838.7V547.9H852.6V444.6ZM648.5 470.9H635V444.5H621V470.8H607.5V484.7H621V547.8H634.9V484.7H648.4L648.5 470.9ZM907.3 547.9L939.2 470.9H924.1L899.8 529.6L875.5 470.9H860.4L892.3 547.9L881.4 574.1H896.5L907.3 547.9Z" fill="#282828"/>
</svg>
